# xmcd
#
# Track frame offsets:
#	150
#	17078
#	35087
#	50568
#	70460
#	87928
#
# Disc length: 1394 seconds
#
# Revision: 0
# Processed by: cddbd v1.5.2PL0 Copyright (c) Steve Scherf et al.
# Submitted via: EasyCDDAExtractor 2010.6.0.0
#
DISCID=4f057006
DTITLE=Mr Lurppa - 6 vuotta
DYEAR=2012
DGENRE=hip-Hop
TTITLE0=Selkä suoras
TTITLE1=Ihmisten virrassa
TTITLE2=Miestä
TTITLE3=Pitkälle
TTITLE4=Kaiversit
TTITLE5=Sinne minne sydän
EXTD=
EXTT0=
EXTT1=
EXTT2=
EXTT3=
EXTT4=
EXTT5=
PLAYORDER=
